External Loads File
version=1
nRows=38
nColumns=13
Range=5.000000e-03-10 seconds
endheader
time 	forceRightX 	forceRightY 	forceRightZ 	pointRightX 	pointRightY 	pointRightZ 	forceLeftX 	forceLeftY 	forceLeftZ 	pointLeftX 	pointLeftY 	pointLeftZ 		
2.505000 20.478619 3.033330 -0.000000 0.118493 0.220297 -0.168316 -197.458239 595.200354 -0.000000 0.362048 0.418238 -0.417004
2.510000 20.152030 11.754150 -0.000000 0.117504 0.221502 -0.168265 -196.077918 592.868411 -0.000000 0.362911 0.416920 -0.416925
2.515000 20.821541 21.193469 -0.000000 0.116516 0.222822 -0.168161 -194.701930 590.622680 -0.000000 0.363800 0.415594 -0.416901
2.520000 22.502414 31.438938 -0.000000 0.115482 0.224124 -0.168052 -193.462694 588.327815 -0.000000 0.364729 0.414291 -0.416850
2.525000 25.129646 42.515120 -0.000000 0.114424 0.225413 -0.167936 -192.277655 585.933024 -0.000000 0.365604 0.412914 -0.416820
2.530000 28.562594 54.343793 -0.000000 0.113387 0.226724 -0.167769 -191.132353 583.403670 -0.000000 0.366512 0.411560 -0.416852
2.535000 32.646126 66.704525 -0.000000 0.112289 0.228114 -0.167661 -189.785418 580.816024 -0.000000 0.367421 0.410175 -0.416860
2.540000 37.172239 79.302894 -0.000000 0.111286 0.229430 -0.167551 -188.468106 578.122537 -0.000000 0.368387 0.408697 -0.416970
2.545000 41.963175 91.806000 -0.000000 0.110226 0.230889 -0.167445 -187.075526 575.414101 -0.000000 0.369273 0.407271 -0.417037
2.550000 46.818926 103.937015 -0.000000 0.109122 0.232271 -0.167302 -185.655504 572.745687 -0.000000 0.370166 0.405748 -0.417036
2.555000 51.551801 115.487361 -0.000000 0.108070 0.233788 -0.167191 -184.238072 570.179875 -0.000000 0.371059 0.404274 -0.417086
2.560000 56.001451 126.310737 -0.000000 0.107052 0.235280 -0.167149 -182.899639 567.754001 -0.000000 0.371964 0.402750 -0.416982
2.565000 60.026563 136.326897 -0.000000 0.106081 0.236716 -0.167073 -181.874633 565.421888 -0.000000 0.372819 0.401247 -0.416980
2.570000 63.730935 145.432011 -0.000000 0.105097 0.238322 -0.167036 -180.637462 563.348534 -0.000000 0.373661 0.399687 -0.416984
2.575000 67.004873 153.710559 -0.000000 0.104208 0.239860 -0.167032 -179.722350 561.345537 -0.000000 0.374539 0.398140 -0.416988
2.580000 69.971648 161.234940 -0.000000 0.103311 0.241444 -0.166996 -178.817214 559.485573 -0.000000 0.375416 0.396539 -0.416944
2.585000 72.725879 168.170709 -0.000000 0.102411 0.243145 -0.167022 -177.837315 557.757616 -0.000000 0.376282 0.394883 -0.416936
2.590000 75.209950 174.817662 -0.000000 0.101573 0.244763 -0.167040 -177.269234 555.976257 -0.000000 0.376970 0.393196 -0.417044
2.595000 77.755671 181.336931 -0.000000 0.100670 0.246491 -0.167067 -176.370108 554.360364 -0.000000 0.377930 0.391531 -0.416905
2.600000 80.333805 188.011822 -0.000000 0.099861 0.248226 -0.167147 -175.556382 552.759536 -0.000000 0.378773 0.389830 -0.416886
2.605000 82.967319 195.029006 -0.000000 0.099095 0.249830 -0.167195 -175.011520 551.102481 -0.000000 0.379476 0.388145 -0.416832
2.610000 85.940918 202.385400 -0.000000 0.098351 0.251536 -0.167233 -174.152032 549.582180 -0.000000 0.380206 0.386448 -0.416804
2.615000 89.250795 210.120545 -0.000000 0.097582 0.253228 -0.167265 -173.155254 548.173375 -0.000000 0.380902 0.384730 -0.416821
2.620000 92.931075 218.157606 -0.000000 0.096819 0.254985 -0.167184 -171.960071 546.933403 -0.000000 0.381578 0.383006 -0.416777
2.625000 96.882549 226.359449 -0.000000 0.096203 0.256735 -0.167186 -170.734150 545.836566 -0.000000 0.382261 0.381234 -0.416734
2.630000 100.926089 234.526730 -0.000000 0.095588 0.258359 -0.167204 -169.709459 544.823916 -0.000000 0.382890 0.379463 -0.416720
2.635000 105.082633 242.332528 -0.000000 0.095029 0.259993 -0.167148 -168.544250 544.003815 -0.000000 0.383522 0.377615 -0.416733
2.640000 109.230202 249.519880 -0.000000 0.094568 0.261777 -0.167086 -167.210964 543.371849 -0.000000 0.384128 0.375775 -0.416700
2.645000 113.061699 255.945845 -0.000000 0.094181 0.263456 -0.167020 -166.094683 542.787736 -0.000000 0.384718 0.373920 -0.416693
2.650000 116.453753 261.420486 -0.000000 0.093873 0.265034 -0.167015 -165.205335 542.228875 -0.000000 0.385273 0.372026 -0.416704
2.655000 119.422685 265.717724 -0.000000 0.093621 0.266684 -0.166987 -164.326664 541.744666 -0.000000 0.385795 0.370112 -0.416718
2.660000 121.952252 268.654715 -0.000000 0.093401 0.268479 -0.166960 -163.366400 541.345682 -0.000000 0.386359 0.368209 -0.416736
2.665000 123.855442 270.165676 -0.000000 0.093302 0.270225 -0.167005 -162.574729 540.935010 -0.000000 0.386884 0.366233 -0.416728
2.670000 125.046738 270.201378 -0.000000 0.093188 0.271888 -0.166951 -161.992743 540.472667 -0.000000 0.387394 0.364268 -0.416718
2.675000 125.645694 268.718877 -0.000000 0.093230 0.273589 -0.166953 -161.309563 540.018162 -0.000000 0.387864 0.362225 -0.416725
2.680000 125.740368 265.823213 -0.000000 0.093276 0.275459 -0.166957 -160.368071 539.581754 -0.000000 0.388330 0.360241 -0.416736
2.685000 125.408241 261.753530 -0.000000 0.093214 0.277330 -0.167232 -159.110361 539.145653 -0.000000 0.388761 0.358159 -0.416760
2.690000 124.428019 256.974276 -0.000000 0.093378 0.278993 -0.167241 -158.155740 538.509341 -0.000000 0.389165 0.356063 -0.416753
